<svg width="445" height="608" viewBox="0 0 445 608" fill="none" xmlns="http://www.w3.org/2000/svg">
<path d="M434.867 168.52C436.434 162.697 437.033 158.515 430.46 154.635C382.002 125.665 333.84 96.3227 285.754 66.9C280.827 63.9156 277.316 63.5406 273.212 68.0927C258.504 84.3687 242.228 99.4527 228.936 116.847C183.384 176.134 159.567 244.978 143.515 317.034C142.02 323.753 143.963 326.966 149.64 330.248C168.009 340.998 186.151 352.201 204.296 363.253C222.515 374.305 240.884 385.056 258.801 396.556C265.15 400.66 269.181 400.514 275.156 395.509C316.672 360.935 354.005 322.561 384.468 277.759C407.385 244.238 424.337 207.874 434.864 168.525L434.867 168.52ZM218.787 340.627C206.615 333.236 202.735 317.408 210.125 305.236C217.516 293.064 233.344 289.184 245.516 296.575C257.688 303.965 261.568 319.793 254.177 331.965C246.787 344.137 230.953 348.023 218.787 340.627ZM309.057 288.881C305.849 294.183 298.979 295.902 293.677 292.616L226.704 251.996C221.402 248.787 219.683 241.918 222.97 236.616L296.443 115.58C299.651 110.278 306.521 108.559 311.823 111.845L378.796 152.465C384.098 155.674 385.739 162.543 382.531 167.845L309.057 288.881ZM356.62 163.819L311.896 136.715C306.594 133.506 299.724 135.22 296.516 140.449L245.068 225.266C241.86 230.569 243.573 237.438 248.802 240.646L293.526 267.75C298.829 270.959 305.698 269.245 308.906 264.016L360.354 179.193C363.563 173.896 361.922 167.027 356.62 163.819Z" fill="#BE185A"/>
<path d="M292.48 52.932C331.453 24.26 372.673 5.66665 419.563 0.962648C422.323 0.665768 426.729 3.05118 428.073 5.44185C443.756 33.8165 450.172 108.931 439.87 142.375C391.187 112.807 342.657 83.3912 292.483 52.9272L292.48 52.932Z" fill="#BE185A"/>
<path d="M155.613 215.787C144.863 249.536 134.78 281.495 124.029 315.391C89.5347 312.479 53.4666 309.417 15.092 306.13C25.9201 288.36 35.4773 272.532 45.108 256.704C52.0506 245.204 58.848 233.63 66.1653 222.282C67.957 219.522 71.3164 215.86 74.0038 215.787C101.035 215.412 128.212 215.709 155.613 215.787L155.613 215.787Z" fill="#BE185A"/>
<path d="M285.76 413.64C310.921 388.328 334.593 364.661 359.307 339.796C361.546 343.827 364.01 348.082 366.327 352.416C376.109 370.858 385.963 389.301 395.297 407.968C397.016 411.327 397.76 417.077 396.042 419.989C379.615 447.989 362.588 475.691 344.296 505.781C324.062 473.895 304.723 443.431 285.76 413.641L285.76 413.64Z" fill="#BE185A"/>
<path d="M136.947 339.573C177.567 364.213 216.916 388.104 257.535 412.745C249.321 420.511 242.076 427.901 234.087 434.475C232.446 435.818 227.665 435.074 225.274 433.652C194.514 415.282 163.821 396.693 133.285 377.802C130.972 376.386 128.056 372.5 128.504 370.412C130.675 360.255 133.884 350.396 136.946 339.573L136.947 339.573Z" fill="#BE185A"/>
<path d="M360.36 179.187L308.912 264.009C305.704 269.311 298.834 270.952 293.532 267.744L248.808 240.64C243.506 237.431 241.865 230.562 245.074 225.26L296.522 140.437C299.73 135.135 306.6 133.494 311.902 136.703L356.626 163.807C361.928 167.015 363.568 173.885 360.36 179.187Z" fill="#BE185A"/>
<path d="M360.36 179.187L308.912 264.009C305.704 269.311 298.834 270.952 293.532 267.744L248.808 240.64C243.506 237.431 241.865 230.562 245.074 225.26L296.522 140.437C299.73 135.135 306.6 133.494 311.902 136.703L356.626 163.807C361.928 167.015 363.568 173.885 360.36 179.187Z" fill="#BE185A"/>
<path d="M95.1333 342.12C95.1333 342.12 93.7896 344.584 91.55 348.99C90.3573 351.156 89.0136 353.844 87.3677 356.828C85.7271 359.891 83.9355 363.25 81.9147 366.985C79.8991 370.719 77.7324 374.75 75.4199 379.005C73.1073 383.261 70.6387 387.74 68.1021 392.369C65.5657 397 62.9511 401.854 60.2636 406.629C57.5761 411.483 54.8105 416.411 52.05 421.337C49.2896 426.264 46.6751 431.27 44.0604 436.124C41.4459 441.051 38.8312 445.832 36.1437 450.384C33.4563 454.936 30.6177 459.197 27.8573 463.228C25.0969 467.259 22.4043 470.993 19.8677 474.353C14.7896 481.15 10.2375 486.671 6.95107 490.405C5.3104 492.269 3.96668 493.764 2.99268 494.733C2.09684 495.702 1.57601 496.228 1.57601 496.228L0.529114 495.629C0.529114 495.629 0.753089 494.957 1.20101 493.686C1.64893 492.415 2.32078 490.551 3.21659 488.233C5.00833 483.53 7.76872 477.035 11.503 469.342C13.3675 465.535 15.3833 461.426 17.7009 457.17C19.9405 452.842 22.4821 448.436 25.2425 443.879C28.0029 439.4 31.0654 434.842 34.2789 430.291C37.4143 425.739 40.6278 421.03 43.6851 416.327C46.8206 411.624 49.883 406.921 52.9455 402.291C56.0081 397.661 59.0706 393.108 61.9819 388.703C64.8934 384.296 67.8049 380.041 70.4923 376.01C73.1798 371.979 75.7945 368.172 78.185 364.661C80.5757 361.151 82.7371 357.942 84.6798 355.104C86.6225 352.265 88.3361 349.802 89.7579 347.786C92.5965 343.755 94.1642 341.364 94.1642 341.364L95.1333 342.12Z" fill="#BE185A"/>
<path d="M181.747 482.333C181.747 482.333 180.851 484.198 179.21 487.411C178.387 489.052 177.419 490.995 176.299 493.234C175.179 495.474 173.908 498.016 172.491 500.703C171.075 503.464 169.58 506.38 167.939 509.516C166.299 512.651 164.58 515.938 162.788 519.37C160.997 522.802 159.132 526.313 157.189 529.823C155.247 533.406 153.309 536.99 151.366 540.573C149.424 544.156 147.559 547.818 145.767 551.474C143.976 555.057 142.111 558.641 140.169 561.927C138.226 565.213 136.137 568.349 134.043 571.187C131.955 574.099 129.939 576.713 127.997 579.177C124.116 584.031 120.606 587.839 117.991 590.453C116.648 591.724 115.601 592.766 114.856 593.437C114.111 594.109 113.663 594.484 113.663 594.484L112.616 593.885C112.616 593.885 112.689 593.365 112.991 592.391C113.215 591.422 113.663 590 114.184 588.208C115.304 584.698 117.095 579.771 119.559 574.094C120.83 571.255 122.246 568.193 123.814 565.057C125.382 561.922 127.173 558.635 129.189 555.349C131.205 552.063 133.517 548.854 135.908 545.568C138.299 542.281 140.689 538.922 143.002 535.563C145.314 532.13 147.632 528.766 149.871 525.406C152.111 522.047 154.423 518.76 156.59 515.625C158.757 512.49 160.918 509.427 162.939 506.516C164.955 503.604 166.897 500.917 168.689 498.375C170.481 495.839 172.121 493.594 173.543 491.505C175.038 489.49 176.304 487.698 177.351 486.203C179.439 483.292 180.71 481.651 180.71 481.651L181.747 482.333Z" fill="#BE185A"/>
<path d="M115.6 442.24C115.6 442.24 114.704 444.105 113.064 447.318C112.241 448.959 111.272 450.901 110.152 453.141C109.032 455.381 107.761 457.922 106.345 460.61C104.928 463.37 103.433 466.287 101.793 469.422C100.152 472.558 98.4333 475.844 96.6416 479.277C94.8499 482.709 92.9853 486.219 91.0427 489.73C89.1 493.313 87.1624 496.896 85.2197 500.48C83.2771 504.063 81.4124 507.724 79.6208 511.381C77.8291 514.964 75.9645 518.547 74.0219 521.834C72.0792 525.12 69.9907 528.256 67.8968 531.094C65.8083 534.006 63.7927 536.62 61.8499 539.084C57.9696 543.938 54.4592 547.745 51.8447 550.36C50.5009 551.631 49.454 552.672 48.7092 553.344C47.9644 554.016 47.5165 554.391 47.5165 554.391L46.4696 553.792C46.4696 553.792 46.5425 553.271 46.8446 552.297C47.0686 551.328 47.5165 549.907 48.0373 548.115C49.1571 544.605 50.9488 539.678 53.4123 534C54.6831 531.162 56.0997 528.099 57.6675 524.964C59.2352 521.828 61.0268 518.542 63.0424 515.256C65.058 511.969 67.3705 508.761 69.7612 505.474C72.1519 502.188 74.5424 498.829 76.8549 495.469C79.1675 492.037 81.4852 488.672 83.7247 485.313C85.9643 481.954 88.2768 478.667 90.4435 475.532C92.6101 472.396 94.7716 469.334 96.7924 466.422C98.808 463.511 100.751 460.824 102.542 458.282C104.334 455.745 105.975 453.501 107.397 451.412C108.891 449.396 110.157 447.605 111.204 446.11C113.292 443.198 114.563 441.558 114.563 441.558L115.6 442.24Z" fill="#BE185A"/>
<path d="M278.733 453.52C278.733 453.52 277.39 455.984 275.15 460.39C273.957 462.556 272.614 465.244 270.968 468.228C269.327 471.291 267.535 474.65 265.515 478.385C263.499 482.119 261.332 486.15 259.02 490.405C256.707 494.66 254.239 499.14 251.702 503.769C249.166 508.4 246.551 513.254 243.864 518.029C241.176 522.883 238.411 527.811 235.65 532.737C232.89 537.664 230.275 542.67 227.66 547.524C225.046 552.451 222.431 557.232 219.744 561.784C217.056 566.336 214.218 570.597 211.457 574.628C208.697 578.659 206.004 582.393 203.468 585.753C198.39 592.55 193.837 598.071 190.551 601.805C188.91 603.669 187.567 605.164 186.593 606.133C185.697 607.102 185.176 607.628 185.176 607.628L184.129 607.029C184.129 607.029 184.353 606.357 184.801 605.086C185.249 603.815 185.921 601.951 186.817 599.633C188.608 594.93 191.369 588.435 195.103 580.742C196.968 576.935 198.983 572.826 201.301 568.57C203.54 564.242 206.082 559.836 208.842 555.279C211.603 550.8 214.665 546.242 217.879 541.691C221.014 537.139 224.228 532.43 227.285 527.727C230.421 523.024 233.483 518.32 236.546 513.691C239.608 509.06 242.671 504.508 245.582 500.103C248.493 495.696 251.405 491.441 254.092 487.41C256.78 483.379 259.394 479.572 261.785 476.061C264.176 472.551 266.337 469.342 268.28 466.504C270.222 463.665 271.936 461.202 273.358 459.186C276.196 455.155 277.764 452.764 277.764 452.764L278.733 453.52Z" fill="#BE185A"/>
</svg>
